<?xml version="1.0" encoding="iso-8859-1"?>
<!-- Generator: Adobe Illustrator 21.0.0, SVG Export Plug-In . SVG Version: 6.00 Build 0)  -->
<svg xmlns="http://www.w3.org/2000/svg" xmlns:xlink="http://www.w3.org/1999/xlink" version="1.1" id="Capa_1" x="0px" y="0px" viewBox="0 0 512 512" style="enable-background:new 0 0 512 512;" xml:space="preserve" width="512" height="512">
<g>
	<g>
		<g>
			<g>
				<g>
					<g>
						<g>
							<g>
								<g>
									<g>
										<g>
											<g>
												<circle style="fill:#555A66;" cx="256" cy="256" r="256"/>
											</g>
										</g>
									</g>
								</g>
							</g>
						</g>
					</g>
				</g>
			</g>
		</g>
	</g>
	<path style="fill:#414952;" d="M509.615,290.949L271,52.333l-23.429,92.857L92.795,398.258l107.686,107.687   C218.359,509.898,236.933,512,256,512C385.528,512,492.569,415.797,509.615,290.949z"/>
	<g>
		
			<rect x="106.621" y="167.192" transform="matrix(0.3105 -0.9506 0.9506 0.3105 -21.0887 335.308)" style="fill:#D47F6C;" width="227.964" height="30"/>
	</g>
	<g>
		
			<ellipse transform="matrix(0.2984 -0.9544 0.9544 0.2984 -191.4561 395.7458)" style="fill:#AFB4C8;" cx="173.461" cy="328.102" rx="91.873" ry="91.873"/>
		<path style="fill:#7E8596;" d="M173.396,434.986c-10.542,0.001-21.249-1.572-31.829-4.88    c-27.246-8.519-49.543-27.138-62.786-52.428c-13.242-25.29-15.843-54.222-7.324-81.468l14.316,4.477l-14.316-4.477    c17.586-56.244,77.651-87.697,133.896-70.11c56.245,17.586,87.696,77.652,70.11,133.896    C261.186,405.66,218.897,434.982,173.396,434.986z M100.09,305.162c-12.649,40.456,9.973,83.661,50.43,96.311    c40.456,12.653,83.662-9.973,96.311-50.43c12.649-40.457-9.974-83.662-50.43-96.311    C155.948,242.084,112.74,264.706,100.09,305.162L100.09,305.162z"/>
	</g>
	<g>
		
			<rect x="276.397" y="68.21" transform="matrix(0.9506 -0.3106 0.3106 0.9506 -42.1721 99.5018)" style="fill:#CC6D58;" width="30" height="227.964"/>
	</g>
	<g>
		
			<ellipse transform="matrix(0.9544 -0.2984 0.2984 0.9544 -82.4874 115.9784)" style="fill:#9196AA;" cx="338.539" cy="328.102" rx="91.873" ry="91.873"/>
		<path style="fill:#707789;" d="M338.604,434.986c-45.505,0-87.789-29.322-102.068-74.99    c-17.586-56.245,13.866-116.311,70.11-133.897c56.248-17.587,116.311,13.866,133.896,70.11    c8.519,27.246,5.918,56.179-7.324,81.468c-13.242,25.29-35.54,43.909-62.786,52.428    C359.856,433.413,349.143,434.985,338.604,434.986z M338.493,251.222c-7.583,0-15.284,1.13-22.894,3.51    c-40.456,12.649-63.079,55.854-50.43,96.312c10.27,32.846,40.688,53.937,73.417,53.939c7.583,0,15.284-1.131,22.894-3.51    c40.457-12.65,63.079-55.854,50.43-96.311l0,0C401.64,272.316,371.222,251.222,338.493,251.222z"/>
	</g>
	<g>
		<rect x="241" y="52.333" style="fill:#FFBEAA;" width="30" height="242.885"/>
	</g>
	<g>
		<rect x="255.905" y="52.333" style="fill:#FAA68E;" width="15.095" height="242.885"/>
	</g>
	<g>
		<circle style="fill:#FFFFFF;" cx="256" cy="357.665" r="91.873"/>
		<path style="fill:#E9EDF5;" d="M256,265.792c-0.032,0-0.063,0.001-0.095,0.001v183.744c0.032,0,0.063,0.001,0.095,0.001    c50.74,0,91.873-41.133,91.873-91.873C347.873,306.925,306.74,265.792,256,265.792z"/>
		<path style="fill:#CDD2E1;" d="M256,464.538c-58.93,0-106.873-47.943-106.873-106.873c0-58.93,47.943-106.873,106.873-106.873    s106.873,47.943,106.873,106.873C362.873,416.595,314.93,464.538,256,464.538z M256,280.792    c-42.388,0-76.873,34.485-76.873,76.873c0,42.388,34.485,76.873,76.873,76.873s76.873-34.485,76.873-76.873    C332.873,315.277,298.388,280.792,256,280.792z"/>
		<path style="fill:#BEC3D2;" d="M256,250.792c-0.032,0-0.063,0.001-0.095,0.001v30.001c0.032,0,0.063-0.002,0.095-0.002    c42.388,0,76.873,34.485,76.873,76.873c0,42.388-34.485,76.873-76.873,76.873c-0.032,0-0.063-0.002-0.095-0.002v30.001    c0.032,0,0.063,0.001,0.095,0.001c58.93,0,106.873-47.943,106.873-106.873C362.873,298.735,314.93,250.792,256,250.792z"/>
	</g>
	<g>
		<polygon style="fill:#FFBEAA;" points="271,376 219.625,376 219.625,346 241,346 241,295.218 271,295.218   "/>
	</g>
	<g>
		<rect x="255.905" y="295.218" style="fill:#FAA68E;" width="15.095" height="80.782"/>
	</g>
</g>















</svg>
