<svg id="Capa_1" enable-background="new 0 0 512 512" height="512" viewBox="0 0 512 512" width="512" xmlns="http://www.w3.org/2000/svg"><g><g><path d="m275 0h-220c-30.327 0-55 24.673-55 55v402c0 30.327 24.673 55 55 55h220c30.327 0 55-24.673 55-55v-402c0-30.327-24.673-55-55-55z" fill="#f4f4f6"/><path d="m275 0h-110v512h110c30.327 0 55-24.673 55-55v-402c0-30.327-24.673-55-55-55z" fill="#e2dff4"/><path d="m55 30h220c13.785 0 25 11.215 25 25v367h-270v-367c0-13.785 11.215-25 25-25z" fill="#8bb9ff"/><path d="m275 30h-110v392h135v-367c0-13.785-11.215-25-25-25z" fill="#7d81e7"/><path d="m185 90h-40c-8.284 0-15-6.716-15-15s6.716-15 15-15h40c8.284 0 15 6.716 15 15s-6.716 15-15 15z" fill="#f4f4f6"/><path d="m185 60h-20v30h20c8.284 0 15-6.716 15-15s-6.716-15-15-15z" fill="#e2dff4"/><circle cx="90" cy="75" fill="#f4f4f6" r="15"/><g><path d="m235 322h-140c-8.284 0-15-6.716-15-15v-10c0-46.869 38.131-85 85-85s85 38.131 85 85v10c0 8.284-6.716 15-15 15z" fill="#ffe278"/><path d="m235 322c8.284 0 15-6.716 15-15v-10c0-46.869-38.131-85-85-85v110z" fill="#ffb454"/><path d="m165 242c-30.327 0-55-24.673-55-55s24.673-55 55-55 55 24.673 55 55-24.673 55-55 55z" fill="#ffddce"/><path d="m220 187c0-30.327-24.673-55-55-55v110c30.327 0 55-24.673 55-55z" fill="#ffbca7"/></g><path d="m235 382h-140c-8.284 0-15-6.716-15-15s6.716-15 15-15h140c8.284 0 15 6.716 15 15s-6.716 15-15 15z" fill="#6b61b1"/><path d="m235 352h-70v30h70c8.284 0 15-6.716 15-15s-6.716-15-15-15z" fill="#38336b"/></g><g><path d="m377 84.978c-8.284 0-15 6.726-15 15.022s6.716 15.022 15 15.022 15-6.726 15-15.022-6.716-15.022-15-15.022z" fill="#f4f4f6"/><path d="m362 100c0 8.296 6.716 15.022 15 15.022s15-6.726 15-15.022z" fill="#e2dff4"/><path d="m430.033 46.889c-5.856-5.867-15.354-5.866-21.213 0-5.858 5.866-5.858 15.378 0 21.245 17.545 17.571 17.545 46.163 0 63.734-5.858 5.867-5.858 15.378 0 21.245 2.929 2.933 6.768 4.4 10.606 4.4s7.678-1.467 10.606-4.4c29.242-29.288 29.242-76.938.001-106.224z" fill="#f4f4f6"/><path d="m408.82 131.867c-5.858 5.867-5.858 15.378 0 21.245 2.929 2.933 6.768 4.4 10.606 4.4s7.678-1.467 10.606-4.4c14.621-14.643 21.931-33.877 21.931-53.111h-29.985c.001 11.54-4.385 23.08-13.158 31.866z" fill="#e2dff4"/><path d="m472.459 4.4c-5.857-5.867-15.355-5.867-21.213 0-5.858 5.866-5.858 15.378 0 21.244 19.832 19.862 30.754 46.268 30.754 74.356s-10.922 54.495-30.754 74.356c-5.858 5.866-5.858 15.378 0 21.244 2.929 2.933 6.768 4.4 10.606 4.4s7.678-1.467 10.606-4.4c25.499-25.536 39.542-59.487 39.542-95.6s-14.043-70.064-39.541-95.6z" fill="#f4f4f6"/><path d="m482 100c0 28.088-10.922 54.495-30.754 74.356-5.858 5.866-5.858 15.378 0 21.244 2.929 2.933 6.768 4.4 10.606 4.4s7.678-1.467 10.606-4.4c25.499-25.536 39.542-59.487 39.542-95.6z" fill="#e2dff4"/></g></g></svg>